HIERARCHY
ROOT Hips
{
	OFFSET 0.000000 100.481300 0.000000
	CHANNELS 6 Xposition Yposition Zposition Xrotation Yrotation Zrotation
	JOINT Spine
	{
		OFFSET -0.279200 12.230698 -2.892100
		CHANNELS 3 Xrotation Yrotation Zrotation
		JOINT Spine1
		{
			OFFSET -0.325700 14.269203 -3.374200
			CHANNELS 3 Xrotation Yrotation Zrotation
			JOINT Spine2
			{
				OFFSET -0.372300 16.307602 -0.352600
				CHANNELS 3 Xrotation Yrotation Zrotation
				JOINT Neck
				{
					OFFSET -0.418800 17.814194 8.416900
					CHANNELS 3 Xrotation Yrotation Zrotation
					JOINT Head
					{
						OFFSET 0.000000 7.031097 3.806800
						CHANNELS 3 Xrotation Yrotation Zrotation
						JOINT HeadTop_End
						{
							OFFSET 0.000000 24.646606 12.978600
							CHANNELS 3 Xrotation Yrotation Zrotation
							End Site
							{
								OFFSET 0.000000 27.854965 0.000000
							}
						}
					}
				}
				JOINT LeftShoulder
				{
					OFFSET 16.952999 14.495407 -7.737500
					CHANNELS 3 Xrotation Yrotation Zrotation
					JOINT LeftArm
					{
						OFFSET 9.308998 -2.777710 0.208600
						CHANNELS 3 Xrotation Yrotation Zrotation
						JOINT LeftForeArm
						{
							OFFSET 29.972298 0.000000 0.000000
							CHANNELS 3 Xrotation Yrotation Zrotation
							JOINT LeftHand
							{
								OFFSET 26.026505 0.000000 0.000000
								CHANNELS 3 Xrotation Yrotation Zrotation
								JOINT LeftHandThumb1
								{
									OFFSET 12.240501 -7.147949 9.207150
									CHANNELS 3 Xrotation Yrotation Zrotation
									JOINT LeftHandThumb2
									{
										OFFSET 4.138618 -2.389435 2.389433
										CHANNELS 3 Xrotation Yrotation Zrotation
										JOINT LeftHandThumb3
										{
											OFFSET 2.726913 -1.574387 1.574386
											CHANNELS 3 Xrotation Yrotation Zrotation
											JOINT LeftHandThumb4
											{
												OFFSET 3.941010 -2.275345 2.275342
												CHANNELS 3 Xrotation Yrotation Zrotation
												End Site
												{
													OFFSET -0.005798 5.087799 0.009903
												}
											}
										}
									}
								}
								JOINT LeftHandIndex1
								{
									OFFSET 24.424698 -1.985611 5.953459
									CHANNELS 3 Xrotation Yrotation Zrotation
									JOINT LeftHandIndex2
									{
										OFFSET 6.426697 0.000000 0.000000
										CHANNELS 3 Xrotation Yrotation Zrotation
										JOINT LeftHandIndex3
										{
											OFFSET 5.337898 0.000000 0.000000
											CHANNELS 3 Xrotation Yrotation Zrotation
											JOINT LeftHandIndex4
											{
												OFFSET 4.409401 0.000000 0.000000
												CHANNELS 3 Xrotation Yrotation Zrotation
												End Site
												{
													OFFSET 0.000000 4.409363 0.014373
												}
											}
										}
									}
								}
								JOINT LeftHandMiddle1
								{
									OFFSET 23.810104 0.000000 0.000000
									CHANNELS 3 Xrotation Yrotation Zrotation
									JOINT LeftHandMiddle2
									{
										OFFSET 7.176498 0.000000 0.000000
										CHANNELS 3 Xrotation Yrotation Zrotation
										JOINT LeftHandMiddle3
										{
											OFFSET 6.774902 0.000000 0.000000
											CHANNELS 3 Xrotation Yrotation Zrotation
											JOINT LeftHandMiddle4
											{
												OFFSET 5.403328 0.000000 0.000000
												CHANNELS 3 Xrotation Yrotation Zrotation
												End Site
												{
													OFFSET -0.027702 5.403244 0.017414
												}
											}
										}
									}
								}
								JOINT LeftHandRing1
								{
									OFFSET 22.908401 -0.839279 -6.020567
									CHANNELS 3 Xrotation Yrotation Zrotation
									JOINT LeftHandRing2
									{
										OFFSET 6.337502 0.000000 0.000000
										CHANNELS 3 Xrotation Yrotation Zrotation
										JOINT LeftHandRing3
										{
											OFFSET 5.779297 0.000000 0.000000
											CHANNELS 3 Xrotation Yrotation Zrotation
											JOINT LeftHandRing4
											{
												OFFSET 4.965698 0.000000 0.000000
												CHANNELS 3 Xrotation Yrotation Zrotation
												End Site
												{
													OFFSET 0.000000 4.965668 0.016186
												}
											}
										}
									}
								}
								JOINT LeftHandPinky1
								{
									OFFSET 20.037003 -1.530319 -10.950146
									CHANNELS 3 Xrotation Yrotation Zrotation
									JOINT LeftHandPinky2
									{
										OFFSET 5.254700 0.000000 0.000000
										CHANNELS 3 Xrotation Yrotation Zrotation
										JOINT LeftHandPinky3
										{
											OFFSET 4.810204 0.000000 0.000000
											CHANNELS 3 Xrotation Yrotation Zrotation
											JOINT LeftHandPinky4
											{
												OFFSET 3.647202 0.000000 0.000000
												CHANNELS 3 Xrotation Yrotation Zrotation
												End Site
												{
													OFFSET 0.000000 3.647186 0.011889
												}
											}
										}
									}
								}
							}
						}
					}
				}
				JOINT RightShoulder
				{
					OFFSET -15.141001 14.495407 -7.737500
					CHANNELS 3 Xrotation Yrotation Zrotation
					JOINT RightArm
					{
						OFFSET -9.308998 -2.777710 0.208500
						CHANNELS 3 Xrotation Yrotation Zrotation
						JOINT RightForeArm
						{
							OFFSET -29.972300 0.000000 0.000000
							CHANNELS 3 Xrotation Yrotation Zrotation
							JOINT RightHand
							{
								OFFSET -26.026505 0.000000 0.000000
								CHANNELS 3 Xrotation Yrotation Zrotation
								JOINT RightHandThumb1
								{
									OFFSET -12.240601 -7.148026 9.207092
									CHANNELS 3 Xrotation Yrotation Zrotation
									JOINT RightHandThumb2
									{
										OFFSET -4.138618 -2.389435 2.389433
										CHANNELS 3 Xrotation Yrotation Zrotation
										JOINT RightHandThumb3
										{
											OFFSET -2.726974 -1.574417 1.574421
											CHANNELS 3 Xrotation Yrotation Zrotation
											JOINT RightHandThumb4
											{
												OFFSET -3.941010 -2.275345 2.275343
												CHANNELS 3 Xrotation Yrotation Zrotation
												End Site
												{
													OFFSET 0.005814 5.087799 0.009927
												}
											}
										}
									}
								}
								JOINT RightHandIndex1
								{
									OFFSET -24.424698 -1.985657 5.953444
									CHANNELS 3 Xrotation Yrotation Zrotation
									JOINT RightHandIndex2
									{
										OFFSET -6.426697 0.000000 0.000000
										CHANNELS 3 Xrotation Yrotation Zrotation
										JOINT RightHandIndex3
										{
											OFFSET -5.337898 0.000000 0.000000
											CHANNELS 3 Xrotation Yrotation Zrotation
											JOINT RightHandIndex4
											{
												OFFSET -4.409401 0.000000 0.000000
												CHANNELS 3 Xrotation Yrotation Zrotation
												End Site
												{
													OFFSET 0.000000 4.409363 0.014408
												}
											}
										}
									}
								}
								JOINT RightHandMiddle1
								{
									OFFSET -23.810097 0.000000 0.000000
									CHANNELS 3 Xrotation Yrotation Zrotation
									JOINT RightHandMiddle2
									{
										OFFSET -7.176498 0.000000 0.000000
										CHANNELS 3 Xrotation Yrotation Zrotation
										JOINT RightHandMiddle3
										{
											OFFSET -6.774902 0.000000 0.000000
											CHANNELS 3 Xrotation Yrotation Zrotation
											JOINT RightHandMiddle4
											{
												OFFSET -5.403328 0.000000 0.000000
												CHANNELS 3 Xrotation Yrotation Zrotation
												End Site
												{
													OFFSET 0.027702 5.403244 0.017457
												}
											}
										}
									}
								}
								JOINT RightHandRing1
								{
									OFFSET -22.908302 -0.839325 -6.020576
									CHANNELS 3 Xrotation Yrotation Zrotation
									JOINT RightHandRing2
									{
										OFFSET -6.337502 0.000000 0.000000
										CHANNELS 3 Xrotation Yrotation Zrotation
										JOINT RightHandRing3
										{
											OFFSET -5.779297 0.000000 0.000000
											CHANNELS 3 Xrotation Yrotation Zrotation
											JOINT RightHandRing4
											{
												OFFSET -4.965698 0.000000 0.000000
												CHANNELS 3 Xrotation Yrotation Zrotation
												End Site
												{
													OFFSET 0.000000 4.965668 0.016226
												}
											}
										}
									}
								}
								JOINT RightHandPinky1
								{
									OFFSET -20.037003 -1.530334 -10.950259
									CHANNELS 3 Xrotation Yrotation Zrotation
									JOINT RightHandPinky2
									{
										OFFSET -5.254700 0.000000 0.000000
										CHANNELS 3 Xrotation Yrotation Zrotation
										JOINT RightHandPinky3
										{
											OFFSET -4.810204 0.000000 0.000000
											CHANNELS 3 Xrotation Yrotation Zrotation
											JOINT RightHandPinky4
											{
												OFFSET -3.647202 0.000000 0.000000
												CHANNELS 3 Xrotation Yrotation Zrotation
												End Site
												{
													OFFSET 0.000000 3.647186 0.011917
												}
											}
										}
									}
								}
							}
						}
					}
				}
			}
		}
	}
	JOINT LeftUpLeg
	{
		OFFSET 15.427100 -6.655098 0.678600
		CHANNELS 3 Xrotation Yrotation Zrotation
		JOINT LeftLeg
		{
			OFFSET 4.081073 -39.591068 13.024000
			CHANNELS 3 Xrotation Yrotation Zrotation
			JOINT LeftFoot
			{
				OFFSET -4.081074 -37.707932 -15.979700
				CHANNELS 3 Xrotation Yrotation Zrotation
				JOINT LeftToeBase
				{
					OFFSET 5.346399 -15.068900 20.645000
					CHANNELS 3 Xrotation Yrotation Zrotation
					JOINT LeftToe_End
					{
						OFFSET 2.754700 0.931300 11.300900
						CHANNELS 3 Xrotation Yrotation Zrotation
						End Site
						{
							OFFSET 0.000000 11.669021 0.000000
						}
					}
				}
			}
		}
	}
	JOINT RightUpLeg
	{
		OFFSET -15.569500 -6.655098 0.678600
		CHANNELS 3 Xrotation Yrotation Zrotation
		JOINT RightLeg
		{
			OFFSET -4.081825 -39.591045 13.023800
			CHANNELS 3 Xrotation Yrotation Zrotation
			JOINT RightFoot
			{
				OFFSET 4.081824 -37.707954 -15.979600
				CHANNELS 3 Xrotation Yrotation Zrotation
				JOINT RightToeBase
				{
					OFFSET -5.346400 -15.068900 20.645000
					CHANNELS 3 Xrotation Yrotation Zrotation
					JOINT RightToe_End
					{
						OFFSET -2.754700 0.931300 11.300900
						CHANNELS 3 Xrotation Yrotation Zrotation
						End Site
						{
							OFFSET 0.000000 11.669021 0.000000
						}
					}
				}
			}
		}
	}
}
MOTION
Frames: 4
Frame Time: 0.033333
-0.137553 80.365982 67.279869 -0.646272 -21.625031 0.939018 7.935729 1.295318 -5.138325 15.043212 2.663245 -2.797707 15.075052 2.464733 -2.803144 2.838274 2.503514 -4.734948 -35.728979 13.084857 -3.300461 0.000000 0.000000 0.000001 1.271709 -6.067857 16.460375 -70.684494 -49.680692 -28.101116 -0.000004 -22.690148 -0.000001 -7.303271 0.311813 -1.177385 -3.132485 -24.253933 18.839967 7.016022 21.130886 3.454526 -0.579468 1.574995 2.538717 -0.000004 -0.000001 0.000000 0.190159 1.610190 -13.469931 0.190166 1.610198 -13.469949 0.190167 1.610204 -13.469944 0.000003 0.000001 -0.000000 0.303475 2.025470 -17.041052 0.428220 2.394617 -20.274711 0.452964 2.460526 -20.859183 0.000001 0.000001 0.000002 0.632548 2.887620 -24.706848 0.886701 3.385072 -29.349299 0.938809 3.475962 -30.220274 0.000000 -0.000000 0.000000 3.961948 7.448724 -37.718449 1.477488 0.180628 -38.380278 1.461770 4.246708 -37.973997 -0.000001 0.000001 -0.000001 -1.489691 -8.101841 -11.716216 -144.432259 72.732171 115.932530 -0.000002 25.709308 0.000005 9.327690 4.416521 8.697423 -3.950210 21.654778 -20.768452 7.497671 -19.485297 3.162346 -1.273761 0.137325 -2.094873 0.000000 -0.000003 0.000000 0.153262 -1.454742 12.027673 0.153265 -1.454726 12.027681 0.153261 -1.454723 12.027671 0.000000 -0.000001 -0.000004 0.347401 -2.174386 18.152848 0.488334 -2.564268 21.560711 0.517325 -2.636389 22.199894 0.000001 -0.000001 -0.000000 0.853850 -3.343449 28.644719 1.194426 -3.901655 34.030885 1.264087 -4.002597 35.041527 0.000001 0.000001 0.000001 2.096841 -4.980099 45.645324 2.096834 -4.980087 45.645341 2.096852 -4.980099 45.645314 0.000000 -0.000001 -0.000002 -41.440482 0.280901 23.591062 24.421206 7.782266 2.820212 27.642399 8.656276 -18.488202 -2.597245 -0.003912 0.103497 0.000000 -0.000001 0.000000 -11.028425 -2.930922 -14.193654 43.702252 8.541195 -9.771647 -39.020328 16.499749 16.367693 -0.842754 -0.000001 0.000002 -0.000000 0.000000 -0.000000 
2.122305 77.415108 69.602821 -0.162907 -27.075806 0.371633 8.329427 1.269214 -5.886029 15.826766 2.425900 -3.777298 15.871321 2.223388 -3.689095 1.704409 3.249253 -3.817692 -41.226253 17.280821 -1.892535 0.000000 0.000001 -0.000001 0.812921 -4.137313 14.528946 -72.972034 -49.269447 -25.251515 -0.000005 -23.045048 0.000005 -6.805762 0.040931 0.389963 -3.132479 -24.253930 18.839965 7.016031 21.130886 3.454525 -0.579466 1.574996 2.538713 0.000000 0.000001 -0.000002 0.190162 1.610188 -13.469932 0.190167 1.610196 -13.469948 0.190164 1.610208 -13.469939 0.000001 -0.000003 -0.000003 0.303479 2.025468 -17.041052 0.428223 2.394616 -20.274708 0.452965 2.460528 -20.859177 -0.000000 0.000002 -0.000001 0.632553 2.887620 -24.706848 0.886700 3.385072 -29.349289 0.938811 3.475962 -30.220271 -0.000001 0.000001 0.000000 3.961950 7.448725 -37.718453 1.477489 0.180627 -38.380278 1.461768 4.246708 -37.973997 -0.000000 0.000001 0.000001 -1.528797 -7.959682 -12.311194 -148.559592 71.639231 117.513282 -0.000001 27.953106 -0.000001 5.046860 7.233822 6.018793 -3.950213 21.654773 -20.768450 7.497670 -19.485293 3.162347 -1.273761 0.137325 -2.094873 -0.000000 -0.000001 0.000000 0.153261 -1.454740 12.027667 0.153262 -1.454723 12.027677 0.153262 -1.454723 12.027673 0.000001 -0.000002 -0.000004 0.347402 -2.174385 18.152846 0.488335 -2.564268 21.560711 0.517326 -2.636387 22.199899 -0.000002 -0.000000 -0.000000 0.853850 -3.343448 28.644722 1.194431 -3.901655 34.030888 1.264086 -4.002598 35.041531 -0.000000 -0.000001 -0.000001 2.096841 -4.980098 45.645331 2.096835 -4.980087 45.645338 2.096851 -4.980100 45.645311 -0.000002 -0.000001 0.000001 -44.265910 -0.377004 25.776780 35.007182 7.921729 3.355712 19.845033 11.922678 -20.567921 -3.761456 -0.000004 0.000009 -0.000001 0.000000 -0.000000 -13.169530 -2.910616 -17.250073 47.031129 10.052426 -8.595155 -38.671479 7.578966 17.139578 -2.010175 -0.000005 0.000005 -0.000000 -0.000001 -0.000000 
4.320826 74.632370 71.621559 0.190161 -30.412776 -0.662332 8.700152 1.173637 -5.964239 16.563858 1.926872 -4.279323 16.614777 1.741140 -4.132016 2.173673 3.684879 -2.675283 -45.664732 20.391981 -0.961265 0.000000 -0.000000 0.000000 0.622417 -3.240044 13.704474 -76.859142 -48.041884 -25.037430 0.000000 -22.778396 -0.000005 -6.279572 -0.253421 2.297746 -3.132477 -24.253930 18.839964 7.016027 21.130886 3.454525 -0.579467 1.574995 2.538715 -0.000001 0.000001 -0.000000 0.190165 1.610192 -13.469932 0.190166 1.610196 -13.469948 0.190165 1.610207 -13.469942 0.000002 0.000001 0.000001 0.303478 2.025470 -17.041054 0.428222 2.394618 -20.274710 0.452965 2.460525 -20.859186 -0.000001 -0.000002 -0.000002 0.632552 2.887621 -24.706852 0.886703 3.385076 -29.349302 0.938808 3.475962 -30.220274 0.000000 0.000000 -0.000000 3.961951 7.448726 -37.718453 1.477490 0.180626 -38.380281 1.461768 4.246709 -37.973997 0.000000 0.000001 -0.000000 -1.608581 -8.500847 -12.019042 -152.366958 70.844833 119.325536 0.000003 30.083923 -0.000000 1.695406 9.527129 3.213993 -3.950211 21.654780 -20.768452 7.497672 -19.485293 3.162346 -1.273761 0.137323 -2.094873 -0.000000 -0.000002 0.000000 0.153263 -1.454738 12.027664 0.153262 -1.454723 12.027681 0.153261 -1.454724 12.027679 0.000000 -0.000001 -0.000003 0.347405 -2.174381 18.152846 0.488333 -2.564269 21.560723 0.517326 -2.636387 22.199892 -0.000000 -0.000000 -0.000001 0.853852 -3.343445 28.644721 1.194429 -3.901654 34.030885 1.264086 -4.002597 35.041531 0.000000 0.000000 -0.000001 2.096843 -4.980098 45.645331 2.096834 -4.980087 45.645345 2.096850 -4.980097 45.645311 -0.000002 0.000001 0.000001 -48.300834 -0.849483 28.315681 43.956061 7.777019 3.073666 15.128437 12.728315 -20.677122 -7.720247 -0.000004 0.000003 -0.000000 0.000000 0.000000 -13.860602 -3.714755 -20.148218 49.265253 10.721311 -6.336899 -37.502335 -2.526027 18.145473 -0.664300 -0.000000 0.000010 -0.000000 0.000000 0.000000 
6.212841 72.624733 73.298714 0.351053 -31.681788 -1.857973 9.100270 1.120928 -5.716844 17.348400 1.372397 -4.469577 17.404166 1.229259 -4.264992 3.836269 3.780269 -2.054818 -47.123910 21.345279 -0.255148 -0.000000 0.000000 0.000001 0.588393 -3.071411 14.369084 -82.035899 -46.272045 -27.972751 -0.000004 -21.426425 0.000000 -5.858970 -0.549169 4.548109 -3.132480 -24.253930 18.839965 7.016029 21.130889 3.454525 -0.579468 1.574995 2.538716 0.000003 -0.000001 0.000002 0.190158 1.610190 -13.469933 0.190165 1.610195 -13.469953 0.190162 1.610204 -13.469945 0.000000 -0.000001 -0.000002 0.303474 2.025470 -17.041052 0.428222 2.394617 -20.274713 0.452965 2.460527 -20.859188 -0.000002 0.000001 0.000002 0.632548 2.887624 -24.706845 0.886705 3.385071 -29.349299 0.938808 3.475959 -30.220274 0.000000 0.000002 0.000000 3.961947 7.448728 -37.718453 1.477488 0.180627 -38.380281 1.461768 4.246710 -37.973997 0.000001 0.000000 -0.000000 -1.720385 -9.497303 -11.393056 -154.296815 70.482826 120.170703 0.000009 31.229046 -0.000003 0.189366 11.204291 0.240432 -3.950211 21.654777 -20.768447 7.497669 -19.485299 3.162345 -1.273761 0.137320 -2.094873 -0.000002 -0.000001 0.000001 0.153263 -1.454739 12.027670 0.153261 -1.454725 12.027685 0.153260 -1.454720 12.027675 -0.000000 -0.000002 -0.000004 0.347404 -2.174383 18.152845 0.488335 -2.564268 21.560715 0.517326 -2.636387 22.199894 0.000002 -0.000000 -0.000000 0.853852 -3.343447 28.644721 1.194428 -3.901655 34.030885 1.264087 -4.002595 35.041527 0.000001 0.000001 -0.000000 2.096843 -4.980098 45.645324 2.096832 -4.980087 45.645341 2.096850 -4.980099 45.645307 0.000001 -0.000000 0.000001 -51.939077 -0.947904 30.171449 50.406871 7.780223 2.517183 11.168164 11.923369 -19.120348 -9.398970 -0.000013 -0.000003 -0.000000 0.000000 0.000000 -13.110914 -4.551341 -22.562473 50.084087 8.725562 -4.322377 -36.129235 -8.825497 21.045493 -0.016108 -0.000038 -0.000006 -0.000000 0.000001 0.000000 
